<?xml version="1.0" encoding="UTF-8"?>
<svg version="1.1" xmlns="http://www.w3.org/2000/svg" width="500" height="500">
<path d="M0 0 C0.94359375 0.515625 1.8871875 1.03125 2.859375 1.5625 C9.06927938 5.11101679 14.54416246 9.39226541 20 14 C20.763125 14.62777344 21.52625 15.25554687 22.3125 15.90234375 C28.32581445 21.00739716 33.21254606 26.74627788 38 33 C38.89332031 34.15242188 38.89332031 34.15242188 39.8046875 35.328125 C59.77171544 62.38022737 66.67814563 95.61079248 62.34375 128.73046875 C57.29725195 160.513841 39.95980995 190.40021249 13.9753418 209.63891602 C5.43193734 215.75595118 -3.4031063 220.74354061 -13 225 C-14.06347656 225.48082031 -15.12695312 225.96164062 -16.22265625 226.45703125 C-45.22331807 238.59258 -79.53343848 238.01029841 -108.48046875 226.2109375 C-117.15698342 222.54260461 -125.29801657 218.47349076 -133 213 C-133.68964844 212.52046875 -134.37929687 212.0409375 -135.08984375 211.546875 C-140.76304127 207.45767916 -145.88758041 202.76012144 -151 198 C-151.680625 197.38511719 -152.36125 196.77023437 -153.0625 196.13671875 C-175.74193484 174.78329925 -187.03595368 142.1992595 -188 111.640625 C-188.4219004 76.05031262 -173.96042733 44.16050979 -149.69921875 18.70703125 C-110.54688 -20.5586283 -47.52324027 -26.4254789 0 0 Z " fill="#00BE62" transform="translate(312,99)"/>
<path d="M0 0 C3.78338742 1.99645758 6.53942778 4.77512019 9.53710938 7.79638672 C10.19591599 8.44899475 10.8547226 9.10160278 11.53349304 9.77398682 C12.9209701 11.15437026 14.30334105 12.53990252 15.6809082 13.93017578 C17.79314122 16.05628745 19.92826928 18.1573024 22.06640625 20.25732422 C23.41225966 21.60222656 24.75670992 22.94853481 26.09960938 24.29638672 C27.06040154 25.23729156 27.06040154 25.23729156 28.04060364 26.19720459 C32.35431094 30.60341086 32.35431094 30.60341086 33.01049805 34.12548828 C32.48632812 36.31201172 32.48632812 36.31201172 30.48632812 38.31201172 C25.74523411 38.14395897 23.61679784 35.91194081 20.40429688 32.62060547 C19.94525467 32.15590347 19.48621246 31.69120148 19.01325989 31.2124176 C17.55708078 29.73394489 16.11546908 28.24215015 14.67382812 26.74951172 C13.68582714 25.74143665 12.69690409 24.73426442 11.70703125 23.72802734 C9.28936419 21.26638718 6.88456228 18.79260499 4.48632812 16.31201172 C4.47602066 17.34962143 4.4657132 18.38723114 4.45509338 19.45628357 C4.35753208 29.21283645 4.25481485 38.96932309 4.14698887 48.72576809 C4.09171574 53.7422047 4.03828886 58.75864709 3.98901367 63.77514648 C3.94143469 68.61216038 3.8890945 73.44910103 3.83338737 78.28602791 C3.81293442 80.13567352 3.79422631 81.98533924 3.7772541 83.83502007 C3.75327492 86.41653626 3.72321194 88.99791269 3.69165039 91.5793457 C3.68589493 92.35186172 3.68013947 93.12437775 3.67420959 93.92030334 C3.60038029 99.19795956 3.60038029 99.19795956 2.48632812 100.31201172 C-0.51367188 100.43701172 -0.51367188 100.43701172 -3.51367188 100.31201172 C-5.51024762 98.31543598 -4.69860614 94.31588574 -4.71899414 91.5793457 C-4.72889374 90.76965332 -4.73879333 89.95996094 -4.74899292 89.12573242 C-4.78070175 86.43655367 -4.80540223 83.74735722 -4.83007812 81.05810547 C-4.85063957 79.19864938 -4.87163581 77.33919804 -4.89305115 75.47975159 C-4.94835553 70.57577357 -4.99772777 65.67175279 -5.04589844 60.7677002 C-5.09605254 55.76745784 -5.15177032 50.7672779 -5.20703125 45.76708984 C-5.31471509 35.94878373 -5.41613719 26.13042353 -5.51367188 16.31201172 C-6.12364014 16.94292725 -6.7336084 17.57384277 -7.36206055 18.22387695 C-9.63702903 20.56714853 -11.92083755 22.90104077 -14.21118164 25.22924805 C-15.19923412 26.23737565 -16.1836618 27.24906954 -17.16430664 28.2644043 C-18.57728669 29.7260831 -20.00294964 31.17429935 -21.43164062 32.62060547 C-22.71204224 33.93242798 -22.71204224 33.93242798 -24.01831055 35.27075195 C-26.65249327 37.42557064 -28.12868072 38.19202737 -31.51367188 38.31201172 C-33.51367188 36.31201172 -33.51367188 36.31201172 -34.05151367 34.14355469 C-33.19055487 29.61091728 -30.11391855 27.17923986 -26.90820312 24.00732422 C-26.2319841 23.32394989 -25.55576508 22.64057556 -24.85905457 21.93649292 C-23.42684916 20.49650754 -21.98821369 19.06289315 -20.54370117 17.63525391 C-18.33238898 15.44317475 -16.15197054 13.22335201 -13.97265625 10.99951172 C-12.5779437 9.60450885 -11.18151504 8.21121917 -9.78320312 6.81982422 C-9.13092239 6.15226105 -8.47864166 5.48469788 -7.80659485 4.79690552 C-3.30628036 0.41039494 -3.30628036 0.41039494 0 0 Z " fill="#F5FDFA" transform="translate(250.513671875,156.68798828125)"/>
<path d="M0 0 C2.97 0.495 2.97 0.495 6 1 C6.33 2.65 6.66 4.3 7 6 C5.35 4.68 3.7 3.36 2 2 C1.98969254 3.03760971 1.97938507 4.07521942 1.96876526 5.14427185 C1.87120396 14.90082473 1.76848673 24.65731137 1.66066074 34.41375637 C1.60538761 39.43019298 1.55196074 44.44663537 1.50268555 49.46313477 C1.45510657 54.30014866 1.40276637 59.13708931 1.34705925 63.97401619 C1.32660629 65.8236618 1.30789819 67.67332752 1.29092598 69.52300835 C1.2669468 72.10452454 1.23688382 74.68590097 1.20532227 77.26733398 C1.1995668 78.03985001 1.19381134 78.81236603 1.18788147 79.60829163 C1.11405216 84.88594784 1.11405216 84.88594784 0 86 C-3 86.125 -3 86.125 -6 86 C-7.75439163 84.24560837 -7.11982963 81.94502544 -7.12442017 79.60829163 C-7.12082489 78.8357756 -7.11722961 78.06325958 -7.11352539 77.26733398 C-7.11367142 76.4576416 -7.11381744 75.64794922 -7.1139679 74.8137207 C-7.11326854 72.12448492 -7.1054751 69.43531751 -7.09765625 66.74609375 C-7.09579215 64.88664284 -7.09436821 63.02719144 -7.09336853 61.16773987 C-7.08954271 56.26370904 -7.07971188 51.35970764 -7.06866455 46.45568848 C-7.05845181 41.45548908 -7.05387121 36.45528494 -7.04882812 31.45507812 C-7.03808967 21.63670579 -7.02101248 11.81835534 -7 2 C-6.67 2 -6.34 2 -6 2 C-6 29.06 -6 56.12 -6 84 C-4.02 84 -2.04 84 0 84 C0 56.28 0 28.56 0 0 Z " fill="#DEFEF7" transform="translate(253,171)"/>
<path d="M0 0 C4.96924751 -0.31057797 8.25986439 0.33230491 12.83984375 2.203125 C23.45837125 6.12026715 35.45442918 6.18013155 46.625 6.1875 C47.60984375 6.19974609 48.5946875 6.21199219 49.609375 6.22460938 C55.48487268 6.23636037 60.34531045 5.53317871 66 4 C68.67327717 3.65881985 71.30303664 3.51948018 74 3.375 C75.01900391 3.31699219 75.01900391 3.31699219 76.05859375 3.2578125 C77.70535817 3.16503704 79.35263955 3.08151002 81 3 C77.40762491 5.09555214 73.81098627 5.77743079 69.75 6.5625 C68.48671875 6.81128906 67.2234375 7.06007813 65.921875 7.31640625 C46.26615842 10.74245247 17.3555527 11.57036847 0 0 Z " fill="#179559" transform="translate(205,325)"/>
<path d="M0 0 C0.33 0 0.66 0 1 0 C6.50592223 25.07161016 5.56930072 50.75462072 -3 75 C-3.33 75 -3.66 75 -4 75 C-4.29436455 71.17326086 -3.85043067 68.25119167 -2.5625 64.6875 C-1.13053335 60.72101962 -0.52172437 57.04327893 -0.2109375 52.84765625 C0 51 0 51 1 49 C1.09880582 46.52817657 1.13984597 44.08523219 1.1328125 41.61328125 C1.13376923 40.87804733 1.13472595 40.14281342 1.13571167 39.38529968 C1.1363929 37.82595738 1.13454259 36.26661226 1.13037109 34.70727539 C1.12506008 32.33928906 1.13029811 29.97149573 1.13671875 27.60351562 C1.13605721 26.08593709 1.13477449 24.56835867 1.1328125 23.05078125 C1.13483673 22.34947586 1.13686096 21.64817047 1.13894653 20.9256134 C1.11838675 16.53130458 0.68559195 12.33681462 0 8 C-0.10751986 5.3206052 -0.0470821 2.68367951 0 0 Z " fill="#1D9C60" transform="translate(371,177)"/>
<path d="M0 0 C1.01656307 3.57900969 0.8409108 6.01477953 0.125 9.6875 C-0.05804688 10.66074219 -0.24109375 11.63398438 -0.4296875 12.63671875 C-1 15 -1 15 -2 16 C-4.745037 25.78523418 -4.43980062 36.11439002 -4.625 46.1875 C-4.66326446 47.91993969 -4.70232081 49.65236207 -4.7421875 51.38476562 C-4.8372517 55.58970005 -4.92161111 59.79472302 -5 64 C-5.33 64 -5.66 64 -6 64 C-9.10719986 42.2752803 -8.25309281 20.60915177 0 0 Z " fill="#199558" transform="translate(132,165)"/>
<path d="M0 0 C0 27.72 0 55.44 0 84 C-0.33 84 -0.66 84 -1 84 C-1.33 58.26 -1.66 32.52 -2 6 C-2.99 6.99 -3.98 7.98 -5 9 C-5.99 9.33 -6.98 9.66 -8 10 C-8.33 10.99 -8.66 11.98 -9 13 C-10.32 12.67 -11.64 12.34 -13 12 C-11.0238076 9.99698146 -9.04425526 7.99750133 -7.0625 6 C-6.49853516 5.42765625 -5.93457031 4.8553125 -5.35351562 4.265625 C-1.11328125 0 -1.11328125 0 0 0 Z " fill="#1DAD65" transform="translate(246,172)"/>
<path d="M0 0 C0.33 0.66 0.66 1.32 1 2 C1.99 2.33 2.98 2.66 4 3 C3.34 3 2.68 3 2 3 C0.7763932 5.0745356 0.7763932 5.0745356 1 8 C-1.475 7.505 -1.475 7.505 -4 7 C-5.3922649 9.41325916 -6.01804702 11.1413683 -6.375 13.9375 C-7.11912785 17.58372646 -8.42906612 19.35115903 -11 22 C-11.66 22 -12.32 22 -13 22 C-13.66 24.31 -14.32 26.62 -15 29 C-15.66 29 -16.32 29 -17 29 C-17.12375 29.7425 -17.2475 30.485 -17.375 31.25 C-17.95486701 33.80141485 -18.73708739 35.7267573 -20 38 C-21.15871282 34.52386155 -20.89033227 34.11017974 -19.41015625 30.9375 C-19.04172607 30.14553223 -18.6732959 29.35356445 -18.29370117 28.53759766 C-17.88740479 27.70019043 -17.4811084 26.8627832 -17.0625 26 C-16.65298096 25.14583496 -16.24346191 24.29166992 -15.8215332 23.41162109 C-12.51368984 16.68628914 -8.75793483 10.80732945 -4 5 C-3.26394531 4.07960937 -2.52789062 3.15921875 -1.76953125 2.2109375 C-1.18558594 1.48132813 -0.60164063 0.75171875 0 0 Z " fill="#129D5B" transform="translate(154,127)"/>
<path d="M0 0 C1.32 0.66 2.64 1.32 4 2 C-4.4793138 8.52254908 -21.85678146 21 -33 21 C-33 20.01 -33 19.02 -33 18 C-29.7 17.34 -26.4 16.68 -23 16 C-23 15.34 -23 14.68 -23 14 C-19.62902617 12.50178941 -17.79557881 12 -14 12 C-13.67 10.68 -13.34 9.36 -13 8 C-11.02 8 -9.04 8 -7 8 C-7 7.34 -7 6.68 -7 6 C-6.01 6 -5.02 6 -4 6 C-4 5.34 -4 4.68 -4 4 C-3.01 3.67 -2.02 3.34 -1 3 C-0.67 2.01 -0.34 1.02 0 0 Z " fill="#18A362" transform="translate(321,307)"/>
<path d="M0 0 C8.68965517 3.37931034 8.68965517 3.37931034 10 6 C10.99 6.33 11.98 6.66 13 7 C14.6875 8.4375 14.6875 8.4375 16 10 C16 10.66 16 11.32 16 12 C16.99 12 17.98 12 19 12 C20.00952964 12.99037867 21.00873313 13.99134248 22 15 C23.90177645 15.80963472 23.90177645 15.80963472 25.9375 16.375 C29.85385292 17.72372559 31.71222586 19.47301487 34 23 C21.50592793 19.32306588 9.35235015 9.97241092 0 1 C0 0.67 0 0.34 0 0 Z " fill="#189E5E" transform="translate(164,299)"/>
<path d="M0 0 C0.66 0 1.32 0 2 0 C2 0.99 2 1.98 2 3 C2.598125 3.28875 3.19625 3.5775 3.8125 3.875 C6 5 6 5 9 7 C9.309375 8.11375 9.61875 9.2275 9.9375 10.375 C11.05859899 14.19992596 12.12235311 15.40083507 15 18 C15.33 18.99 15.66 19.98 16 21 C15.01 21 14.02 21 13 21 C11.19453028 18.80552283 9.59088979 16.65438336 8 14.3125 C7.34257812 13.37374023 7.34257812 13.37374023 6.671875 12.41601562 C0 2.82017131 0 2.82017131 0 0 Z " fill="#169559" transform="translate(140,268)"/>
<path d="M0 0 C0.33 0.99 0.66 1.98 1 3 C-1.15343189 6.23014784 -2.27059611 7.75686537 -6 9 C-6.33 10.65 -6.66 12.3 -7 14 C-7.7425 14.12375 -8.485 14.2475 -9.25 14.375 C-11.81448542 14.9578376 -13.69166512 15.78664449 -16 17 C-11.52140401 10.31851737 -6.0989888 5.20704182 0 0 Z " fill="#159455" transform="translate(171,110)"/>
<path d="M0 0 C6.55320583 1.51227827 12.44329 4.01645656 18.4375 7 C19.13552734 7.34417969 19.83355469 7.68835938 20.55273438 8.04296875 C23.84515694 9.71642988 26.48734653 11.30354042 29 14 C26.33333333 13.33333333 23.66666667 12.66666667 21 12 C21 11.34 21 10.68 21 10 C18.36 9.34 15.72 8.68 13 8 C13 7.34 13 6.68 13 6 C8.545 5.01 8.545 5.01 4 4 C4 3.34 4 2.68 4 2 C2.68 2 1.36 2 0 2 C0 1.34 0 0.68 0 0 Z " fill="#189158" transform="translate(288,89)"/>
<path d="M0 0 C0 3 0 3 -2 5.1875 C-2.66 5.785625 -3.32 6.38375 -4 7 C-4.99 6.67 -5.98 6.34 -7 6 C-7.33 7.65 -7.66 9.3 -8 11 C-10.64 11 -13.28 11 -16 11 C-11.09497945 6.88611179 -5.74433016 2.87216508 0 0 Z " fill="#129354" transform="translate(188,99)"/>
<path d="M0 0 C3.14166231 3.62426706 4.60604186 7.62939929 6.25 12.0625 C6.53101563 12.78244141 6.81203125 13.50238281 7.1015625 14.24414062 C9.12265181 19.63204456 9.12265181 19.63204456 8 23 C6.37723842 20.56585763 5.38255208 18.68680554 4.375 16 C4.11460937 15.319375 3.85421875 14.63875 3.5859375 13.9375 C3 12 3 12 3 9 C2.34 9 1.68 9 1 9 C0.67 6.03 0.34 3.06 0 0 Z " fill="#188E56" transform="translate(362,153)"/>
<path d="M0 0 C0.99 0.33 1.98 0.66 3 1 C-0.3 4.3 -3.6 7.6 -7 11 C-9 7 -9 7 -10 4 C-9.01 3.34 -8.02 2.68 -7 2 C-4.3125 2.875 -4.3125 2.875 -2 4 C-2 3.34 -2 2.68 -2 2 C-1.34 2 -0.68 2 0 2 C0 1.34 0 0.68 0 0 Z " fill="#11BC6B" transform="translate(243,159)"/>
<path d="M0 0 C0.66 0 1.32 0 2 0 C0.97553333 9.1123614 -0.76031521 17.41326264 -4 26 C-4.33 26 -4.66 26 -5 26 C-5.29436455 22.17326086 -4.85043067 19.25119167 -3.5625 15.6875 C-2.13053335 11.72101962 -1.52172437 8.04327893 -1.2109375 3.84765625 C-1 2 -1 2 0 0 Z " fill="#18965A" transform="translate(372,226)"/>
<path d="M0 0 C-0.5623951 3.26189156 -1.4140505 4.91134848 -4 7 C-4.99 7.33 -5.98 7.66 -7 8 C-7.33 8.99 -7.66 9.98 -8 11 C-9.32 10.67 -10.64 10.34 -12 10 C-10.38113585 8.32737283 -8.7547271 6.66204463 -7.125 5 C-6.22007812 4.071875 -5.31515625 3.14375 -4.3828125 2.1875 C-2 0 -2 0 0 0 Z " fill="#1BB66E" transform="translate(245,174)"/>
<path d="M0 0 C3.7952131 1.49097658 5.61042731 3.75700849 8 7 C5.125 7.625 5.125 7.625 2 8 C0 6 0 6 -0.125 2.875 C-0.08375 1.92625 -0.0425 0.9775 0 0 Z " fill="#0DB866" transform="translate(255,174)"/>
<path d="M0 0 C0.66 0.33 1.32 0.66 2 1 C1.09238938 2.75471386 0.17349289 4.50359264 -0.75 6.25 C-1.26046875 7.22453125 -1.7709375 8.1990625 -2.296875 9.203125 C-3.94819881 11.91493199 -5.66491299 13.86796403 -8 16 C-7.37104172 13.06486136 -6.41105919 10.64573598 -5 8 C-4.67 7.34 -4.34 6.68 -4 6 C-3.34 6 -2.68 6 -2 6 C-2 4.68 -2 3.36 -2 2 C-1.34 2 -0.68 2 0 2 C0 1.34 0 0.68 0 0 Z " fill="#19975B" transform="translate(359,266)"/>
<path d="M0 0 C1.13583456 3.71727674 0.66670026 5.47051709 -1 9 C-1.66 9 -2.32 9 -3 9 C-3.12375 9.7425 -3.2475 10.485 -3.375 11.25 C-3.95486701 13.80141485 -4.73708739 15.7267573 -6 18 C-7.42600325 13.72199024 -5.45637064 11.13234078 -3.5625 7.3125 C-3.22412109 6.61060547 -2.88574219 5.90871094 -2.53710938 5.18554688 C-1.70018652 3.45276294 -0.85122607 1.72580248 0 0 Z " fill="#199158" transform="translate(140,147)"/>
<path d="M0 0 C3.72114571 2.31537955 6.61229661 4.28579473 9 8 C5.30581799 8 3.22163822 6.71820705 0 5 C0 3.35 0 1.7 0 0 Z " fill="#139555" transform="translate(331,113)"/>
<path d="M0 0 C2.97 0.495 2.97 0.495 6 1 C6.12375 1.639375 6.2475 2.27875 6.375 2.9375 C6.684375 3.9584375 6.684375 3.9584375 7 5 C7.66 5.33 8.32 5.66 9 6 C9 6.66 9 7.32 9 8 C9.99 8.33 10.98 8.66 12 9 C11.34 9.66 10.68 10.32 10 11 C8.33035479 9.35718838 6.6643536 7.71067239 5 6.0625 C4.071875 5.14597656 3.14375 4.22945312 2.1875 3.28515625 C0 1 0 1 0 0 Z " fill="#21B973" transform="translate(257,162)"/>
<path d="M0 0 C0.33 1.32 0.66 2.64 1 4 C1.66 4 2.32 4 3 4 C3.99 6.97 4.98 9.94 6 13 C5.01 13.495 5.01 13.495 4 14 C3.13644222 12.04578965 2.28440066 10.08648653 1.4375 8.125 C0.96183594 7.03445313 0.48617187 5.94390625 -0.00390625 4.8203125 C-0.33261719 3.88960937 -0.66132813 2.95890625 -1 2 C-0.67 1.34 -0.34 0.68 0 0 Z " fill="#149759" transform="translate(134,252)"/>
<path d="M0 0 C1.65 0 3.3 0 5 0 C4.06725891 1.12894876 3.12859878 2.25300876 2.1875 3.375 C1.66542969 4.00148437 1.14335937 4.62796875 0.60546875 5.2734375 C-1 7 -1 7 -4 9 C-4.33 8.34 -4.66 7.68 -5 7 C-4.34 7 -3.68 7 -3 7 C-3 6.34 -3 5.68 -3 5 C-2.34 5 -1.68 5 -1 5 C-0.67 3.35 -0.34 1.7 0 0 Z " fill="#1FB670" transform="translate(230,170)"/>
<path d="M0 0 C0.66 0.66 1.32 1.32 2 2 C-0.475 7.94 -0.475 7.94 -3 14 C-3.33 14 -3.66 14 -4 14 C-4 12.35 -4 10.7 -4 9 C-3.34 9 -2.68 9 -2 9 C-2 7.02 -2 5.04 -2 3 C-1.34 3 -0.68 3 0 3 C0 2.01 0 1.02 0 0 Z " fill="#169558" transform="translate(365,252)"/>
<path d="M0 0 C0.2475 0.639375 0.495 1.27875 0.75 1.9375 C1.81080962 4.14401083 1.81080962 4.14401083 3.9375 4.8125 C6.19742713 5.15686809 6.19742713 5.15686809 9 4 C9 4.99 9 5.98 9 7 C6.69 7.33 4.38 7.66 2 8 C-0.1519437 4.77208445 -0.20086443 3.71599191 0 0 Z " fill="#24BA73" transform="translate(216,189)"/>
<path d="M0 0 C1 2 1 2 1 6 C2.32 6.66 3.64 7.32 5 8 C2.625 8.625 2.625 8.625 0 9 C-2 7 -2 7 -2.25 4.5 C-2 2 -2 2 0 0 Z " fill="#CAFCE8" transform="translate(219,186)"/>
<path d="M0 0 C0 0.66 0 1.32 0 2 C-2.1875 4.1875 -2.1875 4.1875 -5 6 C-7.8125 5.75 -7.8125 5.75 -10 5 C-3.63636364 0 -3.63636364 0 0 0 Z " fill="#149153" transform="translate(199,94)"/>
<path d="M0 0 C3.32382587 4.33542505 4.12018668 6.47141274 4 12 C3.67 11.01 3.34 10.02 3 9 C2.34 9 1.68 9 1 9 C0.67 6.03 0.34 3.06 0 0 Z " fill="#169D5D" transform="translate(362,153)"/>
<path d="M0 0 C0.99 0.33 1.98 0.66 3 1 C0.69 3.31 -1.62 5.62 -4 8 C-4.33 7.01 -4.66 6.02 -5 5 C-4.34 5 -3.68 5 -3 5 C-3 4.01 -3 3.02 -3 2 C-2.01 1.34 -1.02 0.68 0 0 Z " fill="#CFF9E5" transform="translate(242,172)"/>
<path d="M0 0 C1.11375 0.598125 2.2275 1.19625 3.375 1.8125 C4.00148438 2.14894531 4.62796875 2.48539062 5.2734375 2.83203125 C7 4 7 4 9 7 C8.01 7.33 7.02 7.66 6 8 C4.62437146 6.71034824 3.29233607 5.37310707 2 4 C2 3.34 2 2.68 2 2 C1.34 2 0.68 2 0 2 C0 1.34 0 0.68 0 0 Z " fill="#178D55" transform="translate(322,106)"/>
<path d="M0 0 C2.97 0.495 2.97 0.495 6 1 C6.33 2.65 6.66 4.3 7 6 C5.35 4.68 3.7 3.36 2 2 C1.01 3.485 1.01 3.485 0 5 C0 3.35 0 1.7 0 0 Z " fill="#CDF9E7" transform="translate(253,171)"/>
<path d="M0 0 C0 3 0 3 -2 5.1875 C-2.66 5.785625 -3.32 6.38375 -4 7 C-4.33 5.68 -4.66 4.36 -5 3 C-3.35 2.01 -1.7 1.02 0 0 Z " fill="#13A05A" transform="translate(188,99)"/>
<path d="M0 0 C-1.4562545 0.67119549 -2.91507867 1.33681807 -4.375 2 C-5.59316406 2.556875 -5.59316406 2.556875 -6.8359375 3.125 C-9 4 -9 4 -11 4 C-11 3.01 -11 2.02 -11 1 C-3.375 -1.125 -3.375 -1.125 0 0 Z " fill="#179255" transform="translate(299,324)"/>
<path d="M0 0 C1.32 0.66 2.64 1.32 4 2 C2.71034824 3.37562854 1.37310707 4.70766393 0 6 C-0.66 6 -1.32 6 -2 6 C-1.125 1.125 -1.125 1.125 0 0 Z " fill="#11A662" transform="translate(333,297)"/>
<path d="M0 0 C0.99 0.66 1.98 1.32 3 2 C1.69593116 4.01920337 0.36176581 6.01924973 -1 8 C-1.33 8 -1.66 8 -2 8 C-2.125 5.125 -2.125 5.125 -2 2 C-1.34 1.34 -0.68 0.68 0 0 Z " fill="#15AB66" transform="translate(347,282)"/>
<path d="M0 0 C0.66 0 1.32 0 2 0 C1.43628586 3.26954202 0.50037734 4.82575883 -2 7 C-2.66 6.67 -3.32 6.34 -4 6 C-2.7260411 3.96166576 -1.38938077 1.96147874 0 0 Z " fill="#0EB766" transform="translate(243,174)"/>
<path d="M0 0 C3.0916909 2.52956528 3.90931332 5.22454612 5 9 C4.34 9 3.68 9 3 9 C3 8.34 3 7.68 3 7 C2.34 7 1.68 7 1 7 C0.67 4.69 0.34 2.38 0 0 Z " fill="#159458" transform="translate(357,144)"/>
<path d="M0 0 C0.33 0.99 0.66 1.98 1 3 C-0.9375 5.6875 -0.9375 5.6875 -3 8 C-3.66 7.67 -4.32 7.34 -5 7 C-1.125 1.125 -1.125 1.125 0 0 Z " fill="#10A05B" transform="translate(171,110)"/>
<path d="M0 0 C1.32 0.33 2.64 0.66 4 1 C1.03 3.475 1.03 3.475 -2 6 C-2 4.68 -2 3.36 -2 2 C-1.34 2 -0.68 2 0 2 C0 1.34 0 0.68 0 0 Z " fill="#22B773" transform="translate(237,164)"/>
</svg>
